<svg xmlns="http://www.w3.org/2000/svg" width="36" height="36" fill="#fff" xmlns:v="https://vecta.io/nano"><path d="M8.026 17.222A5.03 5.03 0 0 0 3 22.248a5.03 5.03 0 0 0 5.026 5.026c2.75 0 5.026-2.276 5.026-5.026a5.03 5.03 0 0 0-5.026-5.026zm0 7.681a2.655 2.655 0 1 1 0-5.31 2.655 2.655 0 1 1 0 5.31zm21.622-6.97l.332-.569a5.83 5.83 0 0 0-2.94-.806c-.285 0-.616.047-.901.095l-3.272-6.638-3.841-.948c-.379-.19-.854.047-.996.474s.047.853.427 1.043l2.703 1.233.427.806c-4.931.332-6.875 2.94-9.151 1.897-1.565-.854-4.03-1.233-5.548-1.423-.664-.095-1.28.427-1.28 1.138a1.16 1.16 0 0 0 1.043 1.233c1.422.142 3.461.474 4.647 1.138 0 0 3.319 1.612 3.366 6.117a.75.75 0 0 0 .759.759h3.035a.77.77 0 0 0 .711-.522c.379-1.28 1.47-4.552 3.888-7.302l.901 1.754c-1.565 1.043-2.608 2.797-2.608 4.789h.664c0 2.75 2.276 5.026 5.026 5.026s5.073-2.228 5.073-4.979a4.98 4.98 0 0 0-2.466-4.315zm-2.56 6.97a2.655 2.655 0 1 1 0-5.311 2.655 2.655 0 1 1 0 5.311zm-1.471-11.285c.095.237.332.427.616.427l1.138.047a.52.52 0 0 0 .522-.664l-.664-2.56a.51.51 0 0 0-.806-.332l-1.138.901c-.237.19-.332.522-.237.806l.569 1.375z"/></svg>