<svg fill="none" height="40" viewBox="0 0 41 40" width="41" xmlns="http://www.w3.org/2000/svg"><path d="m20.7876 40c11.0457 0 20-8.9543 20-20s-8.9543-20-20-20-20.000002 8.9543-20.000002 20 8.954302 20 20.000002 20z" fill="#703bd9"/><path d="m13.9644 20.083c-.9551.0011-1.8708.381-2.5462 1.0564-.6753.6754-1.0553 1.5911-1.0564 2.5462.0011.9551.3811 1.8708 1.0564 2.5462.6754.6754 1.5911 1.0553 2.5462 1.0564.9551-.0014 1.8706-.3814 2.5459-1.0567.6754-.6753 1.0554-1.5909 1.0567-2.5459-.0013-.955-.3813-1.8706-1.0567-2.5459-.6753-.6753-1.5908-1.0553-2.5459-1.0567zm0 5.5059c-.5048-.0002-.9888-.2008-1.3459-.5577-.357-.3568-.5579-.8408-.5584-1.3456.0005-.5049.2013-.989.5584-1.346.357-.357.841-.5578 1.3459-.5584.5049.0009.9888.2018 1.3457.5587.357.357.5579.8409.5587 1.3457-.0008.5047-.2018.9885-.5588 1.3453-.3569.3568-.8408.5575-1.3456.558z" fill="#16c2f8"/><path d="m29.4621 20.6008.2542-.4186c-.6364-.3832-1.3654-.5855-2.1084-.5849-.2128.0016-.4251.0198-.6351.0544l-2.3606-4.7588-2.7498-.6864c-.1478-.0369-.304-.0175-.4382.0545-.1343.0719-.2369.1913-.288.3347-.051.1431-.0472.2999.0108.4402.058.1404.166.2542.3031.3195l1.9232.8978.2941.5901c-3.52.2417-4.9179 2.1178-6.5482 1.3603-1.1373-.6216-2.9025-.8915-3.9635-1.0024-.1148-.0118-.2308-.0001-.3409.0345-.11.0346-.2119.0913-.2992.1666-.0874.0754-.1585.1678-.2089.2715-.0505.1038-.0792.2167-.0844.332-.0097.2167.0638.429.2054.5933.1415.1644.3406.2684.5563.2909 1.0077.1046 2.4841.3474 3.3212.8036 0 0 2.3668 1.1625 2.4066 4.3654.0011.1416.0579.2771.1582.3772s.2359.1567.3775.1575h2.1838c.1161.0004.2292-.0371.3221-.1068.0929-.0696.1606-.1677.1927-.2793.2616-.9072 1.062-3.25 2.7875-5.2151l.6351 1.2734c-.5707.3709-1.0399.8784-1.3649 1.4764-.3251.598-.4957 1.2677-.4965 1.9484h.4917c.0011.9551.3811 1.8708 1.0564 2.5462.6754.6753 1.5911 1.0553 2.5462 1.0564.955-.0014 1.8704-.3814 2.5456-1.0568.6751-.6753 1.0549-1.5909 1.056-2.5458.0013-.6216-.1585-1.2328-.4636-1.7743s-.7452-.9947-1.2775-1.3156zm-1.851 4.988c-.5048-.0003-.9889-.2009-1.3459-.5578-.3571-.3568-.5579-.8408-.5585-1.3456.0006-.5049.2014-.9889.5584-1.346.357-.357.8411-.5578 1.346-.5583.5047.0008.9885.2017 1.3453.5587s.5574.8409.558 1.3456c-.0006.5046-.2013.9884-.5581 1.3453-.3568.3568-.8406.5575-1.3452.5581z" fill="#16c2f8"/><g fill="#ffe46e"><path d="m12.7578 12.7463 1.6538 2.1157 1.0832-.8491-1.6774-2.1297z"/><path d="m19.5059 9.82198-.0032 2.68532 1.3763-.0002-.0068-2.71105z"/><path d="m27.519 11.6616-.9611 1.1873 1.055.8838.97-1.2134z"/></g><path d="m26.5719 17.516c.036.0872.0964.162.1741.2155.0776.0535.1691.0833.2633.0859l.8203.023c.06.0017.1196-.0106.1741-.0358.0544-.0252.1023-.0627.1398-.1096.0375-.0468.0636-.1017.0763-.1604.0128-.0586.0117-.1194-.003-.1776l-.4677-1.8322c-.0163-.0619-.0476-.1189-.0912-.1658s-.0981-.0823-.1588-.103c-.0606-.0207-.1254-.0261-.1886-.0157s-.1228.0362-.1736.0752l-.8245.6279c-.0855.0655-.1469.1575-.1747.2616-.0279.104-.0205.2144.0209.3139z" fill="#16c2f8"/></svg>