<svg xmlns="http://www.w3.org/2000/svg" fill="none" viewBox="0 0 26 27"><g stroke="#434f5a" stroke-miterlimit="10" stroke-width="1.5"><path d="M9.37 19.786h6.698M18.29 22.005a2.223 2.223 0 1 0 0-4.447 2.223 2.223 0 0 0 0 4.447zM7.146 21.964a2.224 2.224 0 1 0 0-4.447 2.224 2.224 0 0 0 0 4.447z"/><path d="M14.752 10.53c.518.221.986.545 1.374.952l2.762 2.928 3.507.636a1.74 1.74 0 0 1 1.163.783 1.747 1.747 0 0 1 .218 1.384l-.332 1.38a1.617 1.617 0 0 1-1.574 1.216h-1.463M4.538 19.782h-.87a1.226 1.226 0 0 1-.812-.313 1.23 1.23 0 0 1-.405-.767l-.276-2.679a1.269 1.269 0 0 1 .966-1.382l.812-.193c.375-.094.703-.32.925-.636l1.671-2.36a2.944 2.944 0 0 1 1.055-.925M18.898 14.425l-14.54-.11M11.4 9.281s-3.923-.562-3.32-2.85c.604-2.289 4.241-.638 3.32 2.85zM12.07 9.28s3.95.319 3.868-2.046-3.998-1.559-3.868 2.047zM11.628 9.691v10.546"/></g></svg>