<svg fill="none" height="16" viewBox="0 0 28 16" width="28" xmlns="http://www.w3.org/2000/svg"><path d="m24.9857 5.46451-4.1582-.96513-3.4742-3.19442c-.9122-.842787-2.0926-1.30496-3.3266-1.30496h-4.96315c-1.44869 0-2.77666.720445-3.55466 1.94384l-1.67673 2.59633-1.23407.28545c-1.12676.25828-1.931586 1.27778-1.931586 2.46039v2.86819c0 1.3186.979206 2.406 2.293766 2.5148l1.38162.1223c.41583 1.4137 1.67673 2.4468 3.19249 2.4468 1.48893 0 2.73642-1.0059 3.17902-2.3788h7.3374c.4292 1.3729 1.6901 2.3788 3.1791 2.3788 1.5962 0 2.9242-1.1418 3.2595-2.6507l1.3012-.435c.9255-.299 1.5426-1.169 1.5426-2.1341v-1.57686c0-1.42729-.9658-2.65069-2.3475-2.97693zm-8.8531-2.80022 1.9048 1.76713h-5.8618v-2.58273h1.8511c.778 0 1.5291.28546 2.1059.8156zm-9.10795.28546c.44266-.69326 1.20724-1.10106 2.02549-1.10106h1.30116v2.58273h-4.27903zm.52314 10.45325c-.84507 0-1.52917-.7069-1.52917-1.5632 0-.87.6841-1.5633 1.52917-1.5633s1.52917.7069 1.52917 1.5633c0 .8563-.69751 1.5632-1.52917 1.5632zm13.68211 0c-.8451 0-1.5292-.7069-1.5292-1.5632 0-.87.6841-1.5633 1.5292-1.5633.845 0 1.5292.7069 1.5292 1.5633 0 .8563-.6842 1.5632-1.5292 1.5632zm4.279-3.3847c0 .1767-.1073.3262-.2817.3942l-.8585.2854c-.4695-1.31852-1.6901-2.27005-3.1388-2.27005-1.5694 0-2.884 1.11465-3.2462 2.59635h-7.2032c-.3622-1.4817-1.66329-2.59635-3.23271-2.59635-1.54259 0-2.83032 1.07387-3.21932 2.51475l-1.20724-.1087c-.36217-.0272-.63045-.3263-.63045-.6797v-2.86819c0-.32624.21462-.5981.53655-.66607l1.48894-.35342h15.78803l4.2924.99231c.55.12234.939.6117.939 1.18261v1.57686z" fill="#7d899b"/></svg>