<svg fill="none" height="40" viewBox="0 0 41 40" width="41" xmlns="http://www.w3.org/2000/svg"><path d="m20.7876 40c11.0457 0 20-8.9543 20-20s-8.9543-20-20-20-20.000002 8.9543-20.000002 20 8.954302 20 20.000002 20z" fill="#703bd9"/><g fill="#16c2f8"><path d="m27.4812 22.7104c-.6025 0-1.1803.2394-1.6063.6654s-.6653 1.0038-.6653 1.6062c.0002.6025.2396 1.1801.6656 1.6061.4259.426 1.0036.6654 1.606.6656.6025 0 1.1803-.2394 1.6063-.6654s.6653-1.0038.6653-1.6063c.0001-.2983-.0586-.5937-.1727-.8694-.1141-.2756-.2814-.5261-.4924-.737-.2109-.211-.4614-.3783-.7371-.4924-.2756-.1142-.571-.1729-.8694-.1728z"/><path d="m14.581 22.7292c-.5969 0-1.1694.2372-1.5915.6593-.422.422-.6592.9945-.6592 1.5914s.2372 1.1694.6592 1.5915c.4221.422.9946.6592 1.5915.6592s1.1694-.2372 1.5915-.6592c.422-.4221.6592-.9946.6592-1.5915 0-.2956-.0583-.5882-.1714-.8613s-.2788-.5212-.4878-.7301c-.209-.209-.4571-.3748-.7302-.4879-.2731-.1132-.5657-.1714-.8613-.1714z"/><path d="m31.2749 20.2986c-1.5522-.5215-2.0955-.6325-4.0799-.9569-.3834-.0629-.749-.2072-1.002-.5014l-3.1214-2.9949c-.401-.3839-.9179-.6243-1.4699-.6837-2.1647-.2392-4.3485-.2494-6.5153-.0303-.3665.0342-.7213.1465-1.0408.3294-.3194.1828-.5959.432-.8109.7307l-1.6989 2.3733c-.0811.1155-.2009.198-.3376.2328l-1.04.2624c-.30868.0779-.58072.2608-.76957.5171-.18885.2564-.28275.5704-.26568.8884l.17382 3.2386c.01887.351.17156.6814.42666.9232s.59317.3766.94467.3767h.5262c0-.0062 0-.0124 0-.0186 0-.4449.0877-.8854.2579-1.2964s.4198-.7844.7343-1.099c.3146-.3146.6881-.5641 1.0991-.7343.411-.1703.8515-.2579 1.2964-.2579.4448 0 .8853.0876 1.2962.2579.411.1702.7844.4198 1.0989.7343.3145.3146.564.6881.7341 1.0991.1702.411.2577.8515.2576 1.2963v.0186h6.1311c0-.0062 0-.0124 0-.0186-.0001-.4448.0875-.8853.2576-1.2963.1702-.411.4196-.7845.7341-1.0991.3145-.3145.688-.5641 1.0989-.7343.411-.1703.8515-.2579 1.2963-.2579.8984 0 1.7601.3569 2.3954.9922s.9922 1.497.9922 2.3954v.0186h.4401c.2145 0 .4221-.0763.5855-.2154s.2719-.3318.3062-.5436l.2375-2.1234c.0438-.3918-.0485-.7868-.2613-1.1187s-.5332-.5805-.9075-.7043zm-13.8866-1.397-3.57-.0395c-.0605-.001-.1199-.0166-.1731-.0455-.0531-.0289-.0985-.0703-.1322-.1205-.0337-.0503-.0547-.108-.0613-.1681-.0066-.0602.0015-.121.0236-.1774l.5805-1.4746c.0715-.1831.1927-.3427.35-.4607.1572-.1181.3443-.1899.5401-.2075.5495-.0473 1.8363-.0776 2.4447-.1024zm6.1482.0939-4.9018-.0776v-2.8342c.8779-.0114 1.7556.0332 2.6278.1334.2452.0233.4729.137.6388.319l1.8346 2.0179c.0341.0382.0564.0855.0642.1361.0077.0507.0006.1025-.0205.1491-.0211.0467-.0553.0862-.0985.1138-.0431.0277-.0934.0422-.1446.0418z"/></g><g fill="#ffe46e"><path d="m21.5834 11.2408c-.1696-.2046-.3951-.3554-.649-.4338-.2539-.0785-.5252-.0812-.7806-.0078-.9212.2452-1.6927 1.2984-2.0768 2.7838-.3881-1.4854-1.1556-2.5386-2.0768-2.7838-.2555-.0729-.5266-.0699-.7804.0085s-.4793.2289-.6492.4331c-.326.3772-.402.9057-.2033 1.4148.3841.9856 1.6298 1.6903 3.3325 1.8843l.1777.0202h.4098l.1661-.0186c1.7027-.194 2.9491-.8987 3.3333-1.8844.1987-.5106.1226-1.0391-.2033-1.4163zm-6.2088 1.1463c-.0372-.0963-.0776-.2787.0404-.4191.036-.0474.0823-.086.1354-.1129s.1116-.0414.1711-.0423c.0428.0004.0853.0064.1266.0178.3795.1009.842.6116 1.1198 1.5405-.9639-.2064-1.459-.6418-1.5933-.984zm5.4055 0c-.1343.3446-.6294.7761-1.5933.9872.2786-.9314.7412-1.4397 1.1199-1.5406.0415-.0113.0842-.0173.1273-.0178.0601.0003.1194.0145.1733.0414.0538.0269.1007.0658.1371.1138.1172.1373.0729.3197.0349.416z"/><path d="m18.8479 14.9746h-1.4598v10.0077h1.4598z"/></g></svg>