<svg xmlns="http://www.w3.org/2000/svg" xmlns:xlink="http://www.w3.org/1999/xlink" width="36" height="36" fill="none" xmlns:v="https://vecta.io/nano"><g fill="#fff"><use xlink:href="#B"/><use xlink:href="#B" x="-16.935"/><path d="M32.086 17.147c-2.043-.704-2.753-.849-5.353-1.285-.503-.089-.983-.279-1.311-.67l-4.097-4.022c-.524-.514-1.202-.838-1.934-.916a39.78 39.78 0 0 0-8.555-.045c-.972.101-1.857.614-2.425 1.419l-2.24 3.184a.76.76 0 0 1-.448.313l-1.355.346c-.841.223-1.409 1.017-1.366 1.888l.229 4.346c.055.983.841 1.743 1.803 1.743h.688v-.022c0-2.514 1.988-4.548 4.447-4.548s4.447 2.034 4.447 4.548v.022h8.041v-.022c0-2.514 1.988-4.548 4.447-4.548s4.447 2.034 4.447 4.548v.022h.579c.579 0 1.082-.436 1.169-1.017l.317-2.849c.109-1.073-.524-2.101-1.529-2.436zM12.945 15.27l-3.78-.056c-.339 0-.579-.357-.448-.682l.765-1.978c.197-.503.645-.849 1.169-.894l2.294-.134v3.743zm8.981.123l-7.342-.101v-3.81l4.359.179a1.31 1.31 0 0 1 .841.425l2.404 2.704c.208.235.044.603-.262.603z"/></g><defs ><path id="B" d="M27.105 20.163c-1.77 0-3.201 1.464-3.201 3.274s1.431 3.274 3.201 3.274 3.201-1.464 3.201-3.274-1.431-3.274-3.201-3.274z"/></defs></svg>