<svg fill="none" height="16" viewBox="0 0 24 16" width="24" xmlns="http://www.w3.org/2000/svg" xmlns:xlink="http://www.w3.org/1999/xlink"><clipPath id="a"><path d="m.5 0h23v16h-23z"/></clipPath><g clip-path="url(#a)"><path d="m14.9531 16.0002h-6.23435v-7.40135c0-1.7415 1.42185-3.15647 3.17185-3.15647s3.1719 1.41497 3.1719 3.15647v7.40135z" fill="#f75276"/><path d="m7.84375 15.9981h-6.34375v-5.2245c0-1.74145 1.42188-3.15641 3.17188-3.15641s3.17187 1.41496 3.17187 3.15641z" fill="#16c2f8"/><path d="m22.5 16.0001h-6.3438v-4.0272c0-1.7415 1.4219-3.15649 3.1719-3.15649s3.1719 1.41499 3.1719 3.15649z" fill="#f2aa00"/><path d="m19.3281 7.18399c1.0873 0 1.9688-.87715 1.9688-1.95918s-.8815-1.95919-1.9688-1.95919-1.9687.87716-1.9687 1.95919.8814 1.95918 1.9687 1.95918z" fill="#f2aa00"/><path d="m11.8906 3.91837c1.0873 0 1.9688-.87716 1.9688-1.95919 0-1.082024-.8815-1.95918-1.9688-1.95918s-1.96872.877156-1.96872 1.95918c0 1.08203.88142 1.95919 1.96872 1.95919z" fill="#f75276"/><path d="m4.67188 6.3129c1.08731 0 1.96874-.87716 1.96874-1.95919 0-1.08202-.88143-1.95918-1.96874-1.95918-1.08732 0-1.96876.87716-1.96876 1.95918 0 1.08203.88144 1.95919 1.96876 1.95919z" fill="#16c2f8"/></g></svg>