<svg fill="none" height="11" viewBox="0 0 12 11" width="12" xmlns="http://www.w3.org/2000/svg"><path d="m5.44152.927049c.29935-.92131074 1.60276-.92130907 1.90211.000002l.62055 1.909829c.13387.41202.51783.69098.95105.69098h2.00807c.9688 0 1.3715 1.23962.5878 1.80902l-1.62457 1.18034c-.35048.25465-.49714.70601-.36327 1.11803l.62054 1.90983c.2994.92132-.75513 1.68742-1.53884 1.11802l-1.6246-1.18032c-.35048-.25465-.82508-.25464-1.17557 0l-1.6246 1.18032c-.78371.5694-1.83819-.1967-1.53884-1.11802l.62054-1.90982c.13388-.41203-.01278-.8634-.36327-1.11804l-1.6246-1.18034c-.783711-.5694-.380934-1.80902.58779-1.80902h2.00811c.43323 0 .81719-.27896.95106-.69098z" fill="#ffa52f"/></svg>