<svg fill="none" height="14" viewBox="0 0 33 14" width="33" xmlns="http://www.w3.org/2000/svg" xmlns:xlink="http://www.w3.org/1999/xlink"><clipPath id="a"><path d="m.5 0h31.6336v14h-31.6336z"/></clipPath><g clip-path="url(#a)"><path d="m3.49219 8.44141-.4273 1.81989h-1.8168c-.427479-.96186-.74809-2.03056-.74809-3.31301 0-1.17557.320611-2.24427.74809-3.2061l1.60306.32061.63323 1.48408c-.10688.42748-.20575.97393-.20575 1.40141 0 .53436.03778 1.01655.21356 1.49312z" fill="#fbbb00"/><path d="m14.0629 5.78125c.1069.42748.1069.85496.1069 1.28244 0 .53435 0 .96183-.1069 1.49619-.3206 1.60302-1.093 2.97832-2.3754 3.94012l-2.11315-.0928-.32061-1.7099c.85496-.4275 1.49616-1.17559 1.81676-2.13742h-3.74042v-2.77863h3.74042z" fill="#518ef8"/><path d="m11.8282 12.3956c-1.1756.9618-2.67176 1.4962-4.38168 1.4962-2.67176 0-5.0229-1.4962-6.19847-3.6336l2.24427-1.81679c.64122 1.60309 2.13741 2.67179 3.84733 2.67179.74809 0 1.49618-.2138 2.1374-.5344z" fill="#28b446"/><path d="m11.9351 1.60305-2.24431 1.8168c-.64122-.32061-1.38931-.64122-2.24427-.64122-1.81679 0-3.41985 1.17557-3.9542 2.77862l-2.24427-1.81679c1.17557-2.24428 3.52671-3.74046 6.19847-3.74046 1.70992 0 3.31298.641221 4.48858 1.60305z" fill="#f14336"/><path d="m32.1328 6.94656c0-3.84732-3.2061-6.94656-7.0534-6.94656-3.8474 0-6.9466 3.09924-6.9466 6.94656 0 3.52674 2.5649 6.41224 5.8779 6.94654v-4.916h-1.8168v-2.03054h1.8168v-1.49618c0-1.70992 1.0687-2.67175 2.6717-2.67175.7481 0 1.6031.10687 1.6031.10687v1.70992h-.855c-.8549 0-1.1756.53435-1.1756 1.0687v1.28244h1.9237l-.3206 2.03054h-1.6031v4.916c3.313-.5343 5.8779-3.4198 5.8779-6.94654z" fill="#1877f2"/><path d="m27.8594 8.97582.3206-2.03054h-1.9177v-1.28244c0-.53435.3206-1.0687 1.1756-1.0687h.862v-1.70993s-.8679-.10687-1.7229-.10687c-1.4962 0-2.5649.96184-2.5649 2.67176v1.49618h-1.8168v2.03054h1.8168v4.91598c.3391.0482.7481.1069 1.0687.1069s.816-.0239 1.1752-.1069v-4.91598z" fill="#fff"/></g></svg>