<svg fill="none" height="21" viewBox="0 0 21 21" width="21" xmlns="http://www.w3.org/2000/svg"><path d="m8.77739 15.5459c-.45986-.6387-1.25183-.9708-2.01825-.843-.63869.1022-1.22628-.0767-1.66059-.4343l-1.73722 2.5036 2.78467-.1788.79197 2.6569 2.27372-3.2701c-.15328-.1277-.30657-.2554-.4343-.4343z" fill="#16c2f8"/><path d="m14.116 14.7024c-.792-.1533-1.5584.1788-2.0183.843-.1021.1533-.2043.281-.3321.3832l2.3248 3.3212.792-2.6569 2.7847.1788-1.7883-2.5803c-.4599.4088-1.0986.6387-1.7628.511z" fill="#16c2f8"/><path d="m11.9438 2.51619c.4088.58759 1.1241.86861 1.8139.74088 1.2518-.22993 2.3248.86861 2.0949 2.09489-.1278.68978.1788 1.40511.7408 1.81386 1.0475.71533 1.0475 2.24818 0 2.96348-.5876.4088-.8686 1.1241-.7408 1.8139.2299 1.2518-.8687 2.3248-2.0949 2.0949-.6898-.1278-1.4051.1788-1.8139.7409-.7153 1.0474-2.24817 1.0474-2.9635 0-.40876-.5876-1.12409-.8687-1.81387-.7409-1.25183.2555-2.35037-.8175-2.12044-2.0694.12774-.6897-.17883-1.4051-.74087-1.8138-1.04745-.71535-1.04745-2.2482 0-2.96353.58759-.40876.86861-1.12409.74087-1.81387-.22993-1.25182.86861-2.32481 2.09489-2.09489.68978.12774 1.40511-.17883 1.81387-.74087.71533-1.04745 2.24815-1.04745 2.98905-.02555z" fill="#d1c0ff"/><path d="m10.5137 12.71c2.2857 0 4.1387-1.853 4.1387-4.1387 0-2.28573-1.853-4.13868-4.1387-4.13868-2.28575 0-4.1387 1.85295-4.1387 4.13868 0 2.2857 1.85295 4.1387 4.1387 4.1387z" fill="#fff"/><path d="m9.92689 10.3084c-.12773 0-.25547-.0511-.35766-.1533l-1.20073-1.20074c-.17883-.17883-.17883-.51095 0-.68978s.51095-.17883.68978 0l.86861.86861 1.91611-1.91606c.1788-.17883.5109-.17883.6897 0 .1789.17883.1789.51095 0 .68978l-2.2737 2.24819c-.0766.1022-.2044.1533-.33211.1533z" fill="#9364ed"/></svg>