<svg xmlns="http://www.w3.org/2000/svg" width="36" height="36" fill="none" xmlns:v="https://vecta.io/nano"><path d="M18.554 21.722c-.255.255-.51.255-.765.255s-.51-.128-.765-.255l-3.826-3.698c-.383-.383-.383-1.148 0-1.53s1.148-.383 1.53 0l3.061 2.933 10.074-9.437c-.893-.893-2.168-1.658-3.826-1.913-3.826-.638-6.249 2.933-6.249 2.933s-2.295-3.443-6.121-2.806c-5.101.765-6.759 5.866-4.973 10.585 1.785 4.846 8.162 8.544 10.33 9.692.51.255 1.02.255 1.53 0 2.168-1.148 8.544-4.718 10.457-9.819.893-2.423.893-4.846 0-6.886l-10.457 9.947z" fill="#fff"/></svg>