<svg xmlns="http://www.w3.org/2000/svg" width="28" height="28" fill="none" xmlns:v="https://vecta.io/nano"><path d="M14 28c7.732 0 14-6.268 14-14S21.732 0 14 0 0 6.268 0 14s6.268 14 14 14z" fill="#f1f3f8"></path><path d="M14 12.06A1.94 1.94 0 0 0 12.06 14 1.94 1.94 0 0 0 14 15.94 1.94 1.94 0 0 0 15.94 14 1.94 1.94 0 0 0 14 12.06zm0-1.294c.858 0 1.68.341 2.287.947s.947 1.429.947 2.287-.341 1.68-.947 2.287-1.429.947-2.287.947-1.68-.341-2.287-.947-.947-1.429-.947-2.287.341-1.68.947-2.287 1.429-.947 2.287-.947zm4.204-.162a.81.81 0 0 1-.808.809.81.81 0 0 1-.809-.809.81.81 0 0 1 .809-.808.81.81 0 0 1 .808.808zM14 8.826l-2.606.038c-.507.024-.847.092-1.163.215-.281.109-.483.239-.698.455a1.87 1.87 0 0 0-.455.698c-.123.317-.191.657-.214 1.163L8.826 14l.038 2.606c.024.507.092.847.214 1.162.11.281.239.484.454.698s.42.347.699.455c.319.123.66.192 1.164.215l2.606.037 2.606-.037c.506-.024.847-.092 1.162-.214a1.89 1.89 0 0 0 .698-.454 1.87 1.87 0 0 0 .455-.699c.123-.319.191-.66.215-1.164L19.174 14l-.037-2.606c-.024-.506-.092-.847-.215-1.163-.098-.264-.253-.503-.455-.698-.196-.203-.434-.358-.699-.455-.317-.123-.657-.191-1.163-.214L14 8.826zm0-1.294l2.666.039c.689.032 1.158.14 1.57.301.427.164.787.387 1.146.746.329.323.583.714.746 1.146.16.412.268.882.301 1.57L20.468 14l-.039 2.666c-.032.689-.141 1.158-.301 1.57a3.16 3.16 0 0 1-.746 1.146 3.18 3.18 0 0 1-1.146.746c-.412.16-.882.268-1.57.301L14 20.468c-1.757 0-1.976-.006-2.666-.039s-1.158-.141-1.57-.301c-.432-.162-.823-.417-1.146-.746a3.17 3.17 0 0 1-.746-1.146c-.16-.412-.268-.882-.301-1.57L7.532 14l.039-2.666c.032-.689.14-1.158.301-1.57.162-.432.416-.823.746-1.146.323-.329.714-.584 1.146-.746.413-.16.881-.268 1.57-.301L14 7.532z" fill="#343758"></path></svg>