<svg xmlns="http://www.w3.org/2000/svg" width="28" height="28" fill="none" xmlns:v="https://vecta.io/nano"><path d="M28 14c0 7.737-6.263 14-14 14S0 21.737 0 14 6.263 0 14 0s14 6.263 14 14z" fill="#f1f3f8"></path><path d="M21.266 15.126v5.24h-3.029v-4.892c0-1.228-.43-2.067-1.535-2.067-.839 0-1.33.573-1.555 1.105-.082.205-.102.471-.102.737v5.096h-3.029v-9.129h3.029v1.289l-.02.021h.02v-.021c.409-.614 1.126-1.515 2.743-1.515 1.985.021 3.479 1.31 3.479 4.135zM8.822 6.816c-1.044 0-1.719.675-1.719 1.576 0 .88.655 1.576 1.678 1.576h.02c1.064 0 1.719-.696 1.719-1.576-.02-.901-.655-1.576-1.699-1.576zm-1.535 13.55h3.029v-9.149H7.287v9.149z" fill="#343758"></path></svg>