<svg fill="none" height="34" width="53" xmlns="http://www.w3.org/2000/svg" xmlns:xlink="http://www.w3.org/1999/xlink"><linearGradient id="a" gradientUnits="userSpaceOnUse" x1="30.134" x2="2.375" y1="5.484" y2="30.478"><stop offset="0" stop-color="#003b7b"/><stop offset=".403" stop-color="#00569b"/><stop offset=".765" stop-color="#0068b0"/><stop offset="1" stop-color="#006fb8"/></linearGradient><linearGradient id="b"><stop offset="0" stop-color="#003875"/><stop offset=".256" stop-color="#003f7e"/><stop offset=".671" stop-color="#005196"/><stop offset="1" stop-color="#0063ae"/></linearGradient><linearGradient id="c" gradientUnits="userSpaceOnUse" x1="32.465" x2="32.444" xlink:href="#b" y1="23.087" y2="19.128"/><linearGradient id="d" gradientUnits="userSpaceOnUse" x1="45.746" x2="45.726" xlink:href="#b" y1="23.011" y2="19.13"/><linearGradient id="e" gradientUnits="userSpaceOnUse" x1="41.475" x2="41.455" xlink:href="#b" y1="23.011" y2="19.13"/><linearGradient id="f" gradientUnits="userSpaceOnUse" x1="49.426" x2="49.406" xlink:href="#b" y1="22.991" y2="19.129"/><linearGradient id="g" gradientUnits="userSpaceOnUse" x1="37.029" x2="37.008" xlink:href="#b" y1="23.022" y2="19.129"/><linearGradient id="h" gradientUnits="userSpaceOnUse" x1="27.608" x2="27.587" xlink:href="#b" y1="23.022" y2="19.037"/><linearGradient id="i" gradientUnits="userSpaceOnUse" x1="3.697" x2="3.657" xlink:href="#b" y1="32.21" y2="24.514"/><linearGradient id="j" gradientUnits="userSpaceOnUse" x1="28.302" x2="28.265" xlink:href="#b" y1="32.108" y2="24.997"/><linearGradient id="k" gradientUnits="userSpaceOnUse" x1="17.128" x2="17.091" xlink:href="#b" y1="32.167" y2="25.057"/><linearGradient id="l" gradientUnits="userSpaceOnUse" x1="23.397" x2="23.36" xlink:href="#b" y1="32.135" y2="25.026"/><linearGradient id="m" gradientUnits="userSpaceOnUse" x1="37.954" x2="37.916" xlink:href="#b" y1="32.138" y2="24.765"/><linearGradient id="n" gradientUnits="userSpaceOnUse" x1="46.049" x2="46.009" y1="32.142" y2="24.589"><stop offset="0" stop-color="#003b7b"/><stop offset="1" stop-color="#006fb8"/></linearGradient><linearGradient id="o" gradientUnits="userSpaceOnUse" x1="8.881" x2="8.843" xlink:href="#b" y1="32.227" y2="24.919"/><radialGradient id="p" cx="21.257" cy="13.012" gradientUnits="userSpaceOnUse" r="13.6671"><stop offset="0" stop-color="#ffcc1b"/><stop offset=".35" stop-color="#ffcc1b"/><stop offset=".74" stop-color="#e30521"/><stop offset="1" stop-color="#e30521"/></radialGradient><path d="m35.831 18.286c4.61-3.09 7.212-6.995 6.453-10.465-1.356-5.911-11.714-8.622-23.154-6.074-11.442 2.549-19.684 9.436-18.328 15.346.922 4.013 5.965 6.561 12.688 6.995h-2.385l-.922 3.47-3.362-3.361.162-.76h-3.958l-2.711 9.815h6.398l.814-3.416 3.47 3.525h4.663s3.2.162 5.043-1.41l-.38 1.301h6.02l1.03-1.41h2.386l.325 1.356h5.64l.921-3.525 3.58 3.525h5.747l.976-.054c1.735-.163 3.2-1.519 3.2-3.308 0 0 .162-1.952-1.519-2.82h1.193s1.193-.054 1.735-.759c.271-.38.543-.867.543-1.464l.054-.65v-.651h-1.898l1.41-5.26h-15.4z" fill="#fff"/><path clip-rule="evenodd" d="m7.635 22.404c2.169-.271 4.989-1.139 7.808-2.983 0 0-1.843.272-4.012.217-2.17-.054-4.555-.488-5.748-1.898 1.084.651 3.145.868 6.127 0-.27-.054-1.464-.325-2.44-1.084-.922-.813-1.627-2.115-.922-4.284-.054 1.085.597 2.06 2.603 2.332-.108-.325-.434-1.085-.163-2.223.217-1.14 1.03-2.712 3.091-4.718-.922 1.139-1.464 2.44-.759 3.47.325-.65.813-1.572 1.898-2.71 1.084-1.14 2.82-2.44 5.64-4.013-1.519.976-2.983 2.277-3.525 3.687.976-.922 2.06-1.79 3.687-2.603 1.627-.868 3.741-1.735 6.887-2.548-1.898.65-4.013 1.68-5.64 3.145 1.247-.597 2.657-1.248 4.555-1.681 1.898-.434 4.175-.705 7.103-.597-2.006.109-4.5.597-6.995 1.735.922-.162 2.55-.38 4.393-.27 1.843.162 3.904.704 5.748 2.114-1.573-.705-3.796-1.085-6.724-.65.27.108 1.626.433 2.82 1.463 1.192 1.03 2.223 2.712 1.843 5.423-.271-1.681-1.356-3.2-3.796-3.904.217.325.543 1.355.434 2.71-.108 1.356-.705 3.092-2.277 4.827-1.085 1.247-2.007 1.572-2.007 1.572s.651-.704 1.139-1.789c.488-1.084.868-2.603.325-4.175-.488 2.765-2.873 5.043-5.205 6.56-2.386 1.573-4.664 2.387-4.772 2.224 0 0 .976-.705 2.115-1.735s2.277-2.06 2.874-3.416c-3.362 3.524-8.568 5.64-13.34 5.856-1.464.109-2.494-.054-2.765-.054z" fill="url(#a)" fill-rule="evenodd"/><path d="m23.414 11.018c-.434-.705-1.844-.651-3.145.054-1.356.759-2.06 1.952-1.681 2.657.434.705 1.843.705 3.2-.054 1.3-.76 2.06-1.953 1.626-2.658z" fill="#fff"/><path d="m33.227 9.882c-.867-1.464-2.385-2.223-4.175-2.494-1.79-.217-3.796.054-5.64.65 1.248-.488 2.44-.867 3.2-.976 2.115-.813 4.067-.976 5.531-.867-2.06-.434-4.23-.326-6.236.162a18.216 18.216 0 0 0 -5.422 2.332c.976-.759 1.952-1.355 2.657-1.68a14.385 14.385 0 0 1 4.934-2.278c-2.494.434-4.717 1.247-6.507 2.223s-3.145 2.169-3.958 3.253c.434-.759 1.03-1.464 1.518-1.952.705-1.193 2.06-2.223 3.416-2.982-2.44 1.139-4.175 2.386-5.314 3.579s-1.68 2.386-1.572 3.362c-.217-.651-.217-1.247 0-1.736-.272-.921.38-2.06 1.247-2.982-1.898 1.573-2.82 2.982-3.091 4.121-.217 1.139.271 2.06 1.356 2.549-.922-.271-1.519-.597-1.736-.922-1.3-.434-1.572-1.301-1.355-2.223-1.735 3.47.759 4.934 4.5 4.446-1.41.326-2.548.38-3.199.326-1.572.542-3.47.054-4.12-.597.65 1.41 2.168 2.06 4.066 2.006 1.898 0 4.175-.65 6.236-1.68-1.41.813-2.711 1.41-3.633 1.68-.597.922-4.61 1.627-6.182 1.627 1.627.325 3.742.271 5.585-.163 2.874-.65 5.64-2.44 7.754-4.446-.65.976-3.741 3.362-3.741 3.362-.217.922-3.09 2.223-6.019 3.633 3.308-.813 6.94-2.332 9.49-4.663 1.247-1.139 2.006-2.115 2.385-2.874.542-1.03.542-1.627.542-1.627.163 1.247-.488 2.44-.488 2.44-.27 3.037-3.036 4.935-3.036 4.935.596-.38 1.41-.868 1.41-.868 2.386-1.952 3.633-3.742 4.012-5.26.38-1.464-.054-2.657-1.03-3.362.868.434 1.464.976 1.627 1.41 1.464.868 1.79 2.223 1.518 3.633 1.085-2.277.922-3.904.054-4.934-.867-1.03-2.44-1.573-4.175-1.573 1.247-.108 2.332-.054 2.928.163 2.332-.109 3.796.434 4.663 1.247zm-11.712 3.47c-1.356.76-2.765.76-3.2.055-.433-.705.326-1.844 1.682-2.603 1.301-.705 2.71-.76 3.145-.054.434.705-.271 1.898-1.627 2.602z" fill="url(#p)"/><path d="m33.662 7.818c4.989 1.301 5.368 6.778-1.301 9.706 5.53-3.2 4.175-7.971 1.3-9.706z" fill="#f29224"/><path d="m33.012 18.34c7.862-2.765 10.248-13.935.108-13.555 5.856-1.844 8.73 1.626 7.808 5.693-.488 2.115-1.843 4.013-3.47 5.369-1.356 1.138-2.928 2.006-4.446 2.494zm-23.48-.87c-5.694-.921-4.989-7.265 2.332-9.543-6.453 3.037-5.857 8.676-2.332 9.544z" fill="#00954f"/><path d="m11.105 6.846c-8.08 1.897-12.038 12.904-1.898 13.664-8.73 1.79-9.923-6.832-2.928-11.55a13.934 13.934 0 0 1 3.361-1.68c.488-.163.976-.326 1.464-.434z" fill="#f29224"/><path d="m27.642 20.562-1.79-1.898-1.247 4.555h1.302l.596-2.223.868.922 1.301-.868-.596 2.169h1.301l1.247-4.663-2.928 2.006z" fill="#fff"/><path d="m31.71 23.108c-.597 0-1.139-.163-1.464-.488-.325-.271-.38-.705-.271-1.139l.65-2.332h.868l-.596 2.115c-.109.38-.055.705.216.976.163.163.434.271.76.271.759 0 1.41-.488 1.626-1.193l.597-2.169h.867l-.596 2.278c-.271.922-1.41 1.68-2.657 1.68z" fill="url(#c)"/><path d="m47.163 23-.217-.76h-2.114l-.543.76h-.922l2.495-3.091.65-.76h1.085l-.271.326a.784.784 0 0 0 -.108.38l.813 3.144h-.868zm-1.843-1.302h1.518l-.38-1.518z" fill="url(#d)"/><path d="m49.334 18.934-1.139 4.284h1.301l1.14-4.284zm-5.261 1.247c.108-.434-.054-.705-.217-.867-.217-.217-.65-.38-1.139-.38h-2.765l-1.139 4.284h3.037c.976 0 1.843-.543 2.006-1.247.108-.434-.054-.814-.38-1.03.272-.163.489-.434.597-.76zm-1.518 1.681c-.055.217-.326.38-.651.38h-1.574l.163-.705h1.627c.162 0 .271.054.325.108.163.054.163.163.109.217zm.162-1.68c-.054.162-.217.325-.542.325h-1.355l.163-.597h1.464c.109 0 .217 0 .271.054.055.109.055.217 0 .217z" fill="#fff"/><path d="m39.03 23 1.03-3.85h2.657c.434 0 .76.108.976.325.163.162.217.38.163.705-.055.27-.271.488-.488.65l-.326.163.326.163c.27.162.38.434.325.759-.163.65-.922 1.139-1.844 1.139h-2.82v-.055zm1.084-.597h1.844c.434 0 .759-.217.867-.542a.422.422 0 0 0 -.108-.434c-.108-.109-.271-.163-.488-.163h-1.79zm.434-1.681h1.627c.434 0 .705-.217.759-.488.054-.163 0-.271-.109-.38-.054-.054-.217-.108-.38-.108h-1.625l-.271.976z" fill="url(#e)"/><path d="m39.572 18.934-2.44 1.627-1.572-1.627h-.38l-1.139 4.284h1.302l.596-2.224.868.922 1.301-.867-.596 2.169h1.301l1.193-4.284z" fill="#fff"/><path d="m49.387 22.841.976-3.741h-.867l-1.085 3.85h1.03c-.054 0-.054-.055-.054-.109z" fill="url(#f)"/><path d="m38.705 22.89.162-.541.868-3.2h-.054l-2.603 1.681-1.627-1.68h-.108l-1.03 3.85h.867l.65-2.44.977 1.084 1.626-1.085-.65 2.44h.976c-.054 0-.054-.054-.054-.108z" fill="url(#g)"/><path d="m29.27 22.895 1.085-3.85-2.712 1.79-1.735-1.79-1.084 3.958h.867l.651-2.44.976 1.085 1.627-1.085-.596 2.44h.975c-.054 0-.054-.054-.054-.108z" fill="url(#h)"/><path d="m21.245 30.918-.488 1.952h5.314l1.03-1.41h2.874l.326 1.355h5.151l.976-3.795 3.85 3.795h5.314l.976-.054c1.735-.163 3.2-1.41 3.2-3.145 0-.488-.11-.976-.326-1.355 0 0-.542-1.41-2.657-1.302h-1.464c.054 0-.054 0-.054-.054s0-.108.054-.108c0 0 .217-.163 1.084-.163h3.037s1.247.054 1.79-.65c.325-.435.487-.977.487-1.52v-.596h-4.88s-2.169-.054-3.362.868l.163-.542h-3.145l-.976 3.741-3.742-3.687h-.434l4.176 4.121s.108.108.217.054c.108 0 .108-.108.162-.162 0-.109.976-3.742.976-3.742h2.278l-.434 1.518s.65-1.952 4.121-1.897h4.5v.216c0 .488-.162.976-.433 1.356 0 0-.434.542-1.518.434h-2.983c-1.084 0-1.355.325-1.355.325-.109.054-.163.163-.163.326 0 .216.217.325.38.325 0 0 .921.108 1.518.054.596-.054 1.79.109 2.277 1.03.217.38.326.814.326 1.302 0 1.572-1.302 2.711-2.983 2.82h-5.855l-3.958-3.85s-.109-.163-.217-.163c-.163.054-.163.217-.163.217l-.922 3.741h-4.663l-.38-1.139h-3.307l-1.03 1.41h-4.72l.922-3.416s-1.14 3.254-5.802 3.47h-4.935l-3.958-3.85s-.055-.108-.163-.108c-.108.054-.163.271-.163.271l-.921 3.58h-4.88l2.33-8.351h2.712l.109-.38h-3.036l-2.549 9.11h5.531l.976-3.742 3.85 3.742h4.284c0 .054 3.742.27 5.748-1.952z" fill="#e20613"/><path d="m6.116 24.52 4.121 4.067s.054.109.163.055c.108 0 .162-.163.162-.163l.977-3.741h6.127s1.355-.109 2.603.325c1.193.434 2.331 1.627 2.06 3.145l.922-3.525h2.386l-1.952 7.266 5.91-7.32h2.983l-.868 1.085s-.38.325-.163.813l1.41 5.314 2.007-7.537h-.38l-1.627 6.236-1.084-4.067s-.163-.326.162-.651l1.193-1.464h-3.85l-4.988 6.182 1.627-6.128h-3.091l-.597 2.223s-.488-1.193-2.06-1.789c-1.41-.488-2.712-.38-2.712-.38h-6.235l-.976 3.742-3.688-3.633-.542-.054z" fill="#e20613"/><path d="m16.418 30.377c1.519 0 2.82-.813 3.145-1.898.055-.271.109-.705-.27-1.084-.326-.326-.868-.488-1.627-.488h-1.573l-.922 3.416z" fill="#fff"/><path d="m21.516 25.876c-.542-.543-1.572-1.14-3.525-1.14h-4.066l-2.061 7.81h4.23c2.982 0 5.53-1.682 6.127-3.85.271-1.085 0-2.061-.705-2.82zm-1.68 2.71c-.326 1.248-1.79 2.116-3.471 2.116h-1.681l1.084-4.121h1.844c.813 0 1.464.216 1.844.596.433.325.542.868.38 1.41z" fill="#fff"/><path d="m3.784 32.221c-.163-.054-.163-.162-.163-.27v-.11l1.952-7.32h-1.68l-2.115 7.7z" fill="url(#i)"/><path d="m19.835 28.588c-.325 1.247-1.79 2.115-3.47 2.115h-1.681l1.084-4.122h1.844c.813 0 1.464.217 1.844.597.434.325.542.868.38 1.41z" fill="#e30521"/><path d="m16.418 30.377c1.519 0 2.82-.813 3.145-1.898.055-.271.109-.705-.27-1.084-.326-.326-.868-.488-1.627-.488h-1.573l-.922 3.416z" fill="#fff"/><path d="m29.759 29.346h-1.464l1.138-1.41z" fill="#e20613"/><path d="m47.163 29.561c-.216-.162-.38-.162-.921-.162h-.705a4.419 4.419 0 0 1 -1.681-.326c-.326-.108-.651-.325-.651-.325-.705-.542-.76-1.139-.76-1.518v-.163l-.921 3.633c.271-.217.596-.325.976-.325l3.416.108c.326-.054 1.193 0 1.356-.488-.054-.108-.054-.38-.109-.434zm-1.301.543-3.416-.055c-.163 0-.325 0-.542.055l.433-1.735c.163.216.326.433.651.596.868.542 1.844.705 2.495.705h.704c.434 0 .597-.054.651.108.108.271-.217.326-.976.326z" fill="#e30521"/><path d="m30.842 32.11-.325-1.356h-3.742l-1.03 1.356h-1.735l4.609-5.694 1.193-1.464h2.115l-.543.651a1.414 1.414 0 0 0 -.162.596l1.518 5.802zm-3.253-2.44h2.71l-.65-2.657z" fill="url(#j)"/><path d="m12.243 32.219 1.898-7.104h3.796c1.79 0 2.765.543 3.253 1.03.65.651.868 1.519.597 2.44-.543 2.061-3.037 3.58-5.802 3.634zm2.006-1.193h2.17c1.843 0 3.415-1.03 3.795-2.386.163-.65 0-1.301-.434-1.735s-1.193-.705-2.114-.705h-2.116l-1.302 4.826z" fill="url(#k)"/><path d="m23.414 31.895.054-.217c0-.108.054-.325.108-.433l1.627-6.182h-1.68l-1.736 6.453-.163.705h2.006c-.216-.163-.216-.217-.216-.326z" fill="url(#l)"/><path d="m40.929 24.954-.814 2.928-.162.596-.163.488c-.054.163-.217.109-.271.109l-.434-.434-.76-.759-3.144-3.145-1.952 7.32h1.952c-.163-.054-.163-.108-.163-.217l.054-.216c0-.163.109-.488.109-.488l.542-2.007.109-.38.108-.325.108-.488c.055-.163.217-.108.272-.108l.38.38.325.325.488.488 3.036 3.036h.163l1.843-6.832c.055-.163.109-.271.163-.38l-1.79.109z" fill="url(#m)"/><path d="m48.628 28.425c.216.325.38.76.38 1.193 0 1.356-1.248 2.386-2.387 2.44l-.867.054h-1.41c-2.983-.162-3.254 0-3.254 0v-.325c0-.054.054-.163.054-.217.217-.542.651-.922 1.248-.922l3.416.109c.325 0 1.41 0 1.68-.76.11-.27 0-.488-.053-.596-.163-.271-.543-.38-1.248-.38h-.704c-.488 0-1.248-.162-1.681-.325-.326-.108-.489-.271-.489-.271-.542-.434-.65-.922-.596-1.193 0-.271.108-2.494 3.579-2.657h1.681c.38 0 .922 0 1.301.054h.705c.271 0 .597 0 .922-.054 0 0 0 .38-.108.597-.217.542-.543.813-1.14.813h-3.524c-.325 0-1.464.054-1.68.76-.055.216-.055.379.053.541.163.271.543.38 1.248.38h1.138c.109 0 1.193-.054 1.736.759z" fill="url(#n)"/><g fill="#e20613"><path d="m30.788 18.448.054-.27-3.145 2.114-1.952-2.06-1.41 5.205h1.735l.542-2.06.705.759.976-.651-.542 1.898h1.735l.217-.813s.325.596 1.193.759c1.139.27 2.169-.163 2.332-.271.216-.109.542-.272.704-.434l-.216.705h1.735l.542-2.06.705.758.976-.65-.542 1.897h4.5s.651.055 1.248-.216l.433-.543s-.217.217-.542.326c-.325.108-.65.216-1.139.216h-4.175l.597-2.168-1.248 1.03-.867-.922-.597 2.223h-1.301l.38-1.41s-.217.488-.76.868a4.24 4.24 0 0 1 -1.518.596c-.217.055-.976.109-1.572-.162-.163-.109-.814-.434-.868-1.193l-.325 1.301h-1.302l.597-2.169-1.302.868-.867-.922-.597 2.223h-1.301l1.247-4.555 1.844 1.898 3.09-2.115z"/><path d="m30.734 18.719-.055.217h1.085l-.596 2.223s-.163.434 0 .759c.162.325.596.488 1.247.271.108-.054.705-.271.922-.922 0-.054.325-1.193.325-1.193l.325-1.138h1.627l1.573 1.626 2.44-1.626h3.145s.867-.055 1.247.488c.434.596-.109 1.192-.109 1.192s-.216.217-.433.326c0 0 .813.38.27 1.355l2.766-3.361h1.627l-.542.65s-.109.109-.054.271c.054.217.759 2.983.759 2.983l1.084-3.904h1.301l-1.138 4.283h-2.495l-.27-.759h-1.845l-.597.76h-1.193l-.162.216h1.464l.596-.759h1.573l.162.76h2.874l1.247-4.718h-1.734l-.922 3.307-.542-2.223s-.054-.054.054-.163c.055-.054.814-.976.814-.976h-2.17l-2.277 2.766s0-.271-.27-.542c0 0 .541-.434.487-1.193 0-.163-.163-.922-1.355-1.03h-3.417l-2.44 1.626-1.518-1.572h-1.898l-.65 2.44s-.109.596-.814.813c-.163.054-.596.163-.868-.054-.27-.217-.108-.597-.108-.597l.705-2.602z"/><path d="m42.445 19.963h-1.464l-.163.596h1.41c.271 0 .488-.162.543-.38 0-.216-.326-.216-.326-.216zm-.217.325h-1.193l.055-.162h1.409c.055.054-.054.162-.27.162zm.002 1.248h-1.681l-.163.705h1.627c.27 0 .596-.217.596-.434 0-.27-.38-.27-.38-.27zm-.271.488h-1.356l.054-.271h1.518s.163 0 .109.054c.108.055-.054.163-.325.217zm3.903-.593.487-.541.109.541z"/></g><path d="m11.863 25.118-.76 2.928-.162.597-.163.488c-.054.162-.216.108-.27.108l-.434-.38-.76-.759-.054-.054-3.145-3.145-1.952 7.32h1.898c-.109-.054-.109-.108-.109-.216l.055-.217c0-.163.108-.488.108-.488l.542-2.007.109-.38.108-.325.109-.488c.054-.162.217-.108.27-.108l.38.38.326.325.488.488 2.982 2.928h.217l1.79-6.724c.054-.162.108-.271.162-.38z" fill="url(#o)"/></svg>