<svg width="26" height="26" viewBox="0 0 26 26" fill="none" xmlns="http://www.w3.org/2000/svg">
<path d="M18.8205 12.1708V20.5829H5.41675V5.25165H12.5253" stroke="#434F5A" stroke-width="1.5" stroke-linejoin="round"></path>
<path d="M8.32495 13.0613H15.712" stroke="#434F5A" stroke-width="1.5" stroke-miterlimit="10"></path>
<path d="M8.32495 16.4933H15.712" stroke="#434F5A" stroke-width="1.5" stroke-miterlimit="10"></path>
<path d="M8.32495 9.30566H12.4029" stroke="#434F5A" stroke-width="1.5" stroke-miterlimit="10"></path>
<path d="M17.9292 3.63545L18.4082 5.08368C18.442 5.1994 18.5124 5.30106 18.6088 5.37338C18.7053 5.44571 18.8225 5.48491 18.943 5.48491H20.4694C20.5917 5.48231 20.7116 5.51926 20.8112 5.59018C20.9108 5.6611 20.9849 5.76215 21.0225 5.87852C21.06 5.99489 21.059 6.1202 21.0196 6.23596C20.9802 6.35171 20.9045 6.45171 20.8038 6.52103L19.5782 7.41244C19.4793 7.4841 19.4055 7.58527 19.3675 7.70132C19.3295 7.81738 19.3291 7.94248 19.3664 8.05876L19.8344 9.50726C19.873 9.62223 19.8738 9.7465 19.8367 9.86197C19.7996 9.97745 19.7266 10.078 19.6282 10.149C19.5299 10.2199 19.4114 10.2576 19.2901 10.2564C19.1688 10.2552 19.0511 10.2151 18.9542 10.1422L17.7286 9.25075C17.6291 9.18074 17.5105 9.1433 17.3888 9.1433C17.2672 9.1433 17.1484 9.18074 17.0489 9.25075L15.8233 10.1422C15.7252 10.2118 15.6079 10.2492 15.4875 10.2491C15.3672 10.2489 15.2499 10.2114 15.1519 10.1416C15.0539 10.0718 14.9801 9.97321 14.9406 9.85953C14.9012 9.74584 14.8982 9.62275 14.9319 9.50726L15.4111 8.05876C15.4484 7.94248 15.448 7.81738 15.41 7.70132C15.372 7.58527 15.2982 7.4841 15.1993 7.41244L13.9626 6.52103C13.8682 6.4474 13.7989 6.34651 13.7643 6.23188C13.7297 6.11724 13.7313 5.99458 13.7692 5.88097C13.8071 5.76736 13.8792 5.66818 13.9757 5.59725C14.0721 5.52633 14.1883 5.48715 14.3081 5.48491H15.8233C15.9449 5.48379 16.0631 5.44455 16.1611 5.37257C16.259 5.30058 16.3319 5.19937 16.3693 5.08368L16.8372 3.63545C16.8772 3.52269 16.9513 3.4251 17.0491 3.35609C17.1468 3.28707 17.2636 3.25 17.3832 3.25C17.5029 3.25 17.6195 3.28707 17.7173 3.35609C17.815 3.4251 17.8891 3.52269 17.9292 3.63545Z" fill="#434F5A"></path>
</svg>