<svg width="24" height="24" viewBox="0 0 24 24" fill="none" xmlns="http://www.w3.org/2000/svg">
<path d="M17.6725 6H5.32847C5.14733 6 5.00049 6.14684 5.00049 6.32798V18.672C5.00049 18.8532 5.14733 19 5.32847 19H17.6725C17.8536 19 18.0005 18.8532 18.0005 18.672V6.32798C18.0005 6.14684 17.8536 6 17.6725 6Z" stroke="#434F5A" stroke-width="1.5" stroke-miterlimit="10"></path>
<path d="M18.0003 13.0176H14.1638C13.9531 13.5591 13.5888 14.0273 13.1156 14.3645C12.6424 14.7018 12.0809 14.8934 11.5003 14.9158C10.9196 14.8934 10.3582 14.7018 9.88498 14.3645C9.41176 14.0273 9.04732 13.5591 8.83662 13.0176H5.00024" stroke="#434F5A" stroke-width="1.5" stroke-miterlimit="10"></path>
</svg>