<svg xmlns="http://www.w3.org/2000/svg" width="28" height="28" fill="none" xmlns:v="https://vecta.io/nano"><path d="M14 28c7.732 0 14-6.268 14-14S21.732 0 14 0 0 6.268 0 14s6.268 14 14 14z" fill="#f1f3f8"></path><path d="M7.839 19.076c1.228.778 2.661 1.228 4.216 1.228a7.91 7.91 0 0 0 7.901-7.901v-.328c.164-.123 1.126-.901 1.371-1.412 0 0-.798.328-1.576.409.061-.041 1.064-.737 1.208-1.535 0 0-.553.307-1.351.553a10.37 10.37 0 0 1-.409.123c-.512-.532-1.228-.88-2.026-.88-1.535 0-2.763 1.249-2.763 2.763a2.16 2.16 0 0 0 .082.634c-.205 0-3.459-.184-5.69-2.866 0 0-1.33 1.801.798 3.664 0 0-.634-.021-1.187-.348 0 0-.205 2.19 2.19 2.743 0 0-.471.184-1.228.041 0 0 .43 1.76 2.538 1.924-.021.02-1.699 1.535-4.073 1.187z" fill="#343758"></path></svg>