<svg xmlns="http://www.w3.org/2000/svg" width="28" height="28" fill="none" xmlns:v="https://vecta.io/nano"><path d="M14 28c7.732 0 14-6.268 14-14S21.732 0 14 0 0 6.268 0 14s6.268 14 14 14z" fill="#f1f3f8"></path><path d="M21.246 10.439c-.123-1.044-.982-1.842-2.047-1.924L14 8.31l-5.199.205c-1.044.082-1.924.88-2.047 1.924-.287 2.374-.287 4.769 0 7.143.123 1.044.982 1.842 2.047 1.924L14 19.69l5.199-.184c1.044-.082 1.924-.88 2.047-1.924a29.79 29.79 0 0 0 0-7.143zm-5.015 3.807l-3.582 1.965a.28.28 0 0 1-.409-.246v-3.93a.28.28 0 0 1 .409-.246l3.582 1.965c.205.123.205.389 0 .491z" fill="#343758"></path></svg>